<?xml version="1.0" encoding="UTF-8"?>
<svg data-bbox="68.3 67.5 363.4 365" viewBox="0 0 500 500" xmlns="http://www.w3.org/2000/svg" data-type="ugc">
    <g>
        <linearGradient gradientTransform="rotate(-45.496 1055.478 1331.913)scale(2513.0434)" y2="0" x2=".593" y1="0" x1=".411" gradientUnits="userSpaceOnUse" id="a077ed47-c92a-4855-9df4-11f1ba843162">
            <stop offset="0" stop-color="#070135"/>
            <stop offset="1" stop-color="#612d50"/>
        </linearGradient>
        <path d="M127 67.5h246c32.4 0 58.7 26.3 58.7 58.7v247.6c0 32.4-26.3 58.7-58.7 58.7H127c-32.4 0-58.7-26.3-58.7-58.7V126.2c0-32.4 26.2-58.7 58.7-58.7" fill="url(#a077ed47-c92a-4855-9df4-11f1ba843162)"/>
        <path d="M252.7 224.6c9.3 0 16.3-2 21.1-6.1 4.8-4 7.2-10 7.2-17.9q0-11.7-7.2-17.7c-4.8-4.1-11.8-6.2-21.1-6.2h-32.6v47.9zm2 98.9c11.8 0 20.7-2.5 26.6-7.4 6-4.9 9-12.4 9-22.4 0-9.8-3-17.1-8.9-22s-14.8-7.4-26.8-7.4H220v59.2zm54.8-81.3q18.9 5.4 29.4 20.1c6.9 9.8 10.4 21.8 10.4 36 0 21.8-7.4 38.1-22.3 48.8s-37.5 16.1-67.9 16.1h-97.8V137.1h88.4c31.7 0 54.7 4.7 68.9 14.2 14.3 9.5 21.4 24.7 21.4 45.6q0 16.5-7.8 28.2c-5.2 7.7-12.8 13.4-22.7 17.1" fill="#ffffff"/>
    </g>
</svg>
