<?xml version="1.0" encoding="UTF-8"?>
<svg data-bbox="87.8 67.586 324.6 365.067" viewBox="0 0 500 500" xmlns="http://www.w3.org/2000/svg" data-type="color">
    <g>
        <path d="M412.4 174.8c0-6.1-1.3-11.6-4-16.2q-3.9-6.9-11.7-11.4c-43.2-24.9-86.5-49.8-129.7-74.7-11.7-6.7-22.9-6.5-34.5.3-17.2 10.1-103.4 59.5-129 74.4-10.6 6.1-15.7 15.5-15.7 27.7v150.4c0 6 1.3 11.3 3.8 15.9 2.6 4.7 6.6 8.7 11.9 11.8 25.7 14.9 111.8 64.2 129 74.4 11.6 6.8 22.9 7.1 34.5.3 43.2-25 86.5-49.8 129.7-74.7 5.4-3.1 9.3-7 11.9-11.8 2.5-4.6 3.8-9.9 3.8-15.9z" fill="#5c8dbc" data-color="1"/>
        <path d="M250.5 249.5 91.4 341.1c2.6 4.7 6.6 8.7 11.9 11.8 25.7 14.9 111.8 64.2 129 74.4 11.6 6.8 22.9 7.1 34.5.3 43.2-25 86.5-49.8 129.7-74.7 5.4-3.1 9.3-7 11.9-11.8z" fill="#1a4674" data-color="2"/>
        <path d="M203.4 276.6c9.3 16.2 26.7 27.1 46.6 27.1 20.1 0 37.6-11 46.8-27.4l-46.3-26.8z" fill="#1a4674" data-color="2"/>
        <path d="M412.4 174.8c0-6.1-1.3-11.6-4-16.2l-157.9 90.9 158.1 91.6c2.5-4.6 3.8-9.9 3.8-15.9z" fill="#1b598e" data-color="3"/>
        <path fill="#ffffff" d="M403.7 256.1h-12.4v12.3H379v-12.3h-12.4v-12.4H379v-12.3h12.3v12.3h12.4z" data-color="4"/>
        <path fill="#ffffff" d="M358.6 256.1h-12.4v12.3h-12.3v-12.3h-12.4v-12.4h12.4v-12.3h12.3v12.3h12.4z" data-color="4"/>
        <path d="M296.8 276.3c-9.2 16.3-26.7 27.4-46.8 27.4-20 0-37.4-10.9-46.6-27.1-4.5-7.9-7.1-16.9-7.1-26.6 0-29.7 24-53.7 53.7-53.7 19.8 0 37.1 10.8 46.4 26.8l46.9-27c-18.7-32.2-53.5-53.9-93.4-53.9-59.6 0-107.8 48.3-107.8 107.8 0 19.5 5.2 37.9 14.3 53.7C175 336 210 357.8 250 357.8c40.1 0 75.1-21.9 93.7-54.4z" fill="#ffffff" data-color="4"/>
    </g>
</svg>
