<?xml version="1.0" encoding="UTF-8"?>
<svg data-bbox="0.001 0 255.373 245.388" xmlns:xlink="http://www.w3.org/1999/xlink" xmlns="http://www.w3.org/2000/svg" width="256" viewBox="0 0 256 246" preserveAspectRatio="xMidYMid" height="246" data-type="ugc">
    <g>
        <linearGradient id="49c30311-c8dd-4139-a649-517ede4a3090">
            <stop stop-color="#0052cc" offset=".18"/>
            <stop stop-color="#2684ff" offset="1"/>
        </linearGradient>
        <linearGradient y2="37.755%" y1="112.708%" xlink:href="#49c30311-c8dd-4139-a649-517ede4a3090" x2="33.859%" x1="99.14%" id="c9f51374-cdb6-48d5-a0ee-5b70d9d5a47d"/>
        <linearGradient y2="62.306%" y1="-12.582%" xlink:href="#49c30311-c8dd-4139-a649-517ede4a3090" x2="66.18%" x1=".926%" id="61dc85ba-41bf-4cc0-86b1-d5876f1e7934"/>
        <path fill="url(#c9f51374-cdb6-48d5-a0ee-5b70d9d5a47d)" d="M9.26 187.33c-2.64 4.307-5.607 9.305-8.126 13.287a8.127 8.127 0 0 0 2.722 11.052l52.823 32.507a8.127 8.127 0 0 0 11.256-2.763c2.113-3.536 4.835-8.127 7.801-13.044 20.926-34.538 41.974-30.312 79.925-12.19l52.376 24.908a8.127 8.127 0 0 0 10.93-4.063l25.152-56.886a8.127 8.127 0 0 0-4.063-10.646c-11.052-5.201-33.034-15.562-52.823-25.111-71.189-34.579-131.691-32.344-177.972 42.949"/>
        <path fill="url(#61dc85ba-41bf-4cc0-86b1-d5876f1e7934)" d="M246.115 58.232c2.641-4.307 5.607-9.305 8.127-13.287a8.127 8.127 0 0 0-2.723-11.052L198.696 1.386a8.127 8.127 0 0 0-11.58 2.682c-2.113 3.535-4.835 8.127-7.802 13.043-20.926 34.538-41.974 30.313-79.925 12.19L47.176 4.515a8.127 8.127 0 0 0-10.93 4.063L11.093 65.465a8.127 8.127 0 0 0 4.063 10.645c11.052 5.202 33.035 15.563 52.823 25.112 71.351 34.538 131.854 32.222 178.135-42.99"/>
    </g>
</svg>
