<?xml version="1.0" encoding="UTF-8"?>
<svg data-bbox="122.5 70 255 360" viewBox="0 0 500 500" xmlns="http://www.w3.org/2000/svg" data-type="color">
    <g>
        <path fill="#1f72b5" d="m145.7 401.1-23.2-260.4h255L354.3 401l-104.5 29z" data-color="1"/>
        <path fill="#51a3dc" d="m250 407.9 84.4-23.4L354.3 162H250z" data-color="2"/>
        <path fill="#ebebeb" d="M167.1 222.1 164 192h172l-2 34.9-72.7 32.1H331l-7.5 99-70.3 18.9-72.9-17.7-4.5-50.2H208l1.8 26.5 42.2 7.9 39-12 1.8-42.4H173l-2.2-31.5 79.2-34.7z" data-color="3"/>
        <path fill="#cecece" d="M170.8 257.5 173 289h77v-66.2z" data-color="4"/>
        <path fill="#cecece" d="M209.8 335.5 208 309h-32.2l4.5 50.2 69.7 16.9V343z" data-color="4"/>
        <path fill="#cecece" d="m164 192 3.1 30.1 82.9.7V192z" data-color="4"/>
        <path d="M274 82V70h-48v28h33v9h-34v11h48V89h-34v-7z" fill="#000000" data-color="5"/>
        <path d="M187 98.3v8.7h34v11h-48V70h47v12h-33z" fill="#000000" data-color="5"/>
        <path d="M327 82V70h-48v28h33v9h-34v11h48V89h-34v-7z" fill="#000000" data-color="5"/>
    </g>
</svg>
