<?xml version="1.0" encoding="UTF-8"?>
<svg data-bbox="67.5 72 365 356.011" viewBox="0 0 500 500" xmlns="http://www.w3.org/2000/svg" data-type="color">
    <g>
        <path d="M250 72C149.2 72 67.5 153.7 67.5 254.5c0 80.6 52.3 149 124.8 173.2 9.1 1.7 12.5-4 12.5-8.8 0-4.4-.2-18.7-.2-34-50.8 11-61.5-21.5-61.5-21.5-8.3-21.1-20.3-26.7-20.3-26.7-16.6-11.3 1.2-11.1 1.2-11.1 18.3 1.3 28 18.8 28 18.8 16.3 27.9 42.7 19.8 53.1 15.2 1.6-11.8 6.4-19.8 11.6-24.4-40.5-4.6-83.2-20.3-83.2-90.2 0-19.9 7.1-36.2 18.8-49-1.9-4.6-8.1-23.2 1.8-48.3 0 0 15.3-4.9 50.2 18.7 14.6-4 30.2-6.1 45.7-6.1 15.5.1 31.1 2.1 45.7 6.1 34.8-23.6 50.1-18.7 50.1-18.7 9.9 25.1 3.7 43.7 1.8 48.3 11.7 12.8 18.8 29.1 18.8 49 0 70.1-42.7 85.5-83.3 90 6.5 5.7 12.4 16.8 12.4 33.8 0 24.4-.2 44.1-.2 50.1 0 4.9 3.3 10.5 12.5 8.8 72.5-24.2 124.7-92.5 124.7-173.2C432.5 153.7 350.8 72 250 72" fill-rule="evenodd" clip-rule="evenodd" fill="#181616" data-color="1"/>
        <path d="M136.6 334c-.4.9-1.8 1.2-3.1.6s-2.1-1.8-1.6-2.7c.4-.9 1.8-1.2 3.1-.6s2.1 1.8 1.6 2.7" fill="#181616" data-color="1"/>
        <path d="M144 342.3c-.9.8-2.6.4-3.7-.8-1.2-1.3-1.4-3-.5-3.8s2.5-.4 3.7.8c1.2 1.3 1.4 3 .5 3.8" fill="#181616" data-color="1"/>
        <path d="M151.2 352.8c-1.1.8-2.9.1-4.1-1.6-1.1-1.6-1.1-3.6 0-4.4s2.9-.1 4.1 1.5c1.2 1.7 1.2 3.7 0 4.5" fill="#181616" data-color="1"/>
        <path d="M161.1 362.9c-1 1.1-3.1.8-4.7-.7s-2-3.6-1-4.7 3.2-.8 4.7.7c1.6 1.6 2 3.7 1 4.7" fill="#181616" data-color="1"/>
        <path d="M174.7 368.8c-.4 1.4-2.5 2.1-4.6 1.5s-3.4-2.3-3-3.7 2.5-2.1 4.6-1.5c2 .6 3.4 2.3 3 3.7" fill="#181616" data-color="1"/>
        <path d="M189.6 369.9c.1 1.5-1.7 2.8-3.9 2.8-2.2.1-3.9-1.2-4-2.7 0-1.5 1.7-2.8 3.9-2.8s4 1.2 4 2.7" fill="#181616" data-color="1"/>
        <path d="M203.5 367.6c.3 1.5-1.2 3-3.4 3.4-2.1.4-4.1-.5-4.3-2-.3-1.5 1.3-3 3.4-3.4s4 .5 4.3 2" fill="#181616" data-color="1"/>
    </g>
</svg>
