<?xml version="1.0" encoding="UTF-8"?>
<svg data-bbox="67.5 67.5 365 365" viewBox="0 0 500 500" xmlns="http://www.w3.org/2000/svg" data-type="color">
    <g>
        <path fill="#f7df1e" d="M432.5 67.5v365h-365v-365z" data-color="1"/>
        <path d="m163.5 372.5 27.9-16.9c5.4 9.6 10.3 17.6 22 17.6 11.3 0 18.4-4.4 18.4-21.6V235.1h34.3v117.1c0 35.5-20.8 51.7-51.2 51.7-27.4 0-43.3-14.2-51.4-31.4" fill="#000000" data-color="2"/>
        <path d="m284.8 368.8 27.9-16.2c7.4 12 16.9 20.8 33.8 20.8 14.2 0 23.3-7.1 23.3-16.9 0-11.8-9.3-15.9-25-22.8l-8.6-3.7c-24.7-10.5-41.2-23.8-41.2-51.7 0-25.7 19.6-45.3 50.2-45.3 21.8 0 37.5 7.6 48.8 27.4l-26.7 17.1c-5.9-10.5-12.2-14.7-22-14.7-10 0-16.4 6.4-16.4 14.7 0 10.3 6.4 14.5 21.1 20.8l8.6 3.7c29.2 12.5 45.6 25.2 45.6 53.9 0 30.9-24.3 47.8-56.8 47.8-32 .2-52.6-15-62.6-34.9" fill="#000000" data-color="2"/>
    </g>
</svg>
