<?xml version="1.0" encoding="UTF-8"?>
<svg data-bbox="0.095 0.508 89.811 88.984" xmlns="http://www.w3.org/2000/svg" width="90" viewBox="0 0 90 90" height="90" data-type="color">
    <g fill-rule="evenodd">
        <path d="m87.822 66.555-.402 1.042c-6.851 13.339-18.99 21.525-36.303 21.886-8.094.166-15.806-1.91-20.844-4.169C19.4 80.43 10.256 71.37 5.262 61.691c-7.164-13.875-8.456-33.176 6.44-47.592.23 0-1.807 3.126-1.577 3.126l-.41 1.334C-1.02 52.166 32.052 80.965 64.2 77.67c7.726-.792 17.579-5.023 23.623-11.116" fill="#21609b" data-color="1"/>
        <path d="M68.368 52.659c8.088.056 16.536-3.724 21.538-9.032-4.377 11.11-17.049 18.252-34.044 15.98-14.229-1.903-27.784-16.223-29.181-30.57C25.66 18.593 29.3 12.361 35.297 4.801c-2.085 3.954-2.863 7.004-3.058 8.949-2.278 22.588 18.044 38.79 36.128 38.908" fill="#21609b" data-color="1"/>
        <path d="M89.095 24.604c-1.257 2.884-8.497 8.33-11.694 9.011-12.659 2.696-20.766-3.306-25.012-10.137-.632-1.021-1.799-3.807-2.008-4.516-1.647-5.6-.89-14.069 4.024-18.454-1.48 4.169-1.696 9.011-.917 12.16.471 1.903 1.91 5.225 3.348 7.315 2.619 3.808 4.28 4.733 7.643 6.754 1.514.91 3.14 1.64 3.842 1.841 3.189.938 9.921 3.412 20.774-3.974" fill="#21609b" data-color="1"/>
    </g>
</svg>
