<?xml version="1.0" encoding="UTF-8"?>
<svg data-bbox="67.4 94.12 365.114 311.659" viewBox="0 0 500 500" xmlns="http://www.w3.org/2000/svg" data-type="color">
    <g>
        <path d="M418.2 334.2c-19.5 10.2-120.4 51.6-141.9 62.8s-33.4 11.1-50.4 3-124.4-51.5-143.7-60.7c-9.7-4.6-14.8-8.5-14.8-12.2v-36.9s139.8-30.4 162.4-38.5 30.4-8.4 49.6-1.4 134 27.8 153 34.7v36.4c.1 3.6-4.3 7.6-14.2 12.8" fill="#912626" data-color="1"/>
        <path d="M418.2 297.5c-19.5 10.1-120.4 51.6-141.9 62.8s-33.4 11.1-50.4 3-124.3-51.5-143.7-60.7c-19.3-9.2-19.7-15.6-.7-23s125.8-49.3 148.4-57.4 30.4-8.4 49.6-1.4 119.5 47 138.5 53.9c18.9 7 19.7 12.7.2 22.8" fill="#c6302b" data-color="2"/>
        <path d="M418.2 274.5c-19.5 10.2-120.4 51.6-141.9 62.8s-33.4 11.1-50.4 3-124.4-51.5-143.7-60.7c-9.7-4.6-14.8-8.5-14.8-12.2v-36.9s139.8-30.4 162.4-38.5 30.4-8.4 49.6-1.4 134 27.8 153 34.7v36.4c.1 3.7-4.3 7.7-14.2 12.8" fill="#912626" data-color="1"/>
        <path d="M418.2 237.8c-19.5 10.2-120.4 51.6-141.9 62.8s-33.4 11.1-50.4 3-124.3-51.5-143.7-60.7c-19.3-9.2-19.7-15.6-.7-23.1 19-7.4 125.8-49.3 148.4-57.4s30.4-8.4 49.6-1.4S399 208 418 214.9c18.9 7.1 19.7 12.8.2 22.9" fill="#c6302b" data-color="2"/>
        <path d="M418.2 212.6c-19.5 10.2-120.4 51.6-141.9 62.8s-33.4 11.1-50.4 3-124.4-51.5-143.7-60.7c-9.7-4.6-14.8-8.5-14.8-12.2v-36.9s139.8-30.4 162.4-38.5 30.4-8.4 49.6-1.4 134 27.8 153 34.7v36.4c.1 3.6-4.3 7.6-14.2 12.8" fill="#912626" data-color="1"/>
        <path d="M418.2 175.9c-19.5 10.2-120.4 51.6-141.9 62.8s-33.4 11.1-50.4 3S101.6 190.3 82.3 181c-19.3-9.2-19.7-15.6-.7-23.1 19-7.4 125.8-49.3 148.4-57.4s30.4-8.4 49.6-1.4 119.5 47 138.5 53.9c18.8 7 19.6 12.8.1 22.9" fill="#c6302b" data-color="2"/>
        <path fill="#ffffff" d="m294.6 140-31.4 3.3-7 16.9-11.4-18.9-36.2-3.2 27.1-9.8-8.2-14.9 25.4 9.9 23.8-7.8-6.4 15.4z" data-color="3"/>
        <path fill="#ffffff" d="m254.3 222.1-58.5-24.3 83.9-12.9z" data-color="3"/>
        <path d="M173.1 149.4c24.8 0 44.9 7.8 44.9 17.4s-20.1 17.4-44.9 17.4-44.9-7.8-44.9-17.4c.1-9.6 20.2-17.4 44.9-17.4" fill="#ffffff" data-color="3"/>
        <path fill="#621b1c" d="m331.7 144.7 49.7 19.6-49.7 19.6z" data-color="4"/>
        <path fill="#9a2928" d="m276.7 166.4 55-21.7v39.2l-5.4 2.1z" data-color="5"/>
    </g>
</svg>
