<?xml version="1.0" encoding="UTF-8"?>
<svg data-bbox="0 0 512 512" viewBox="0 0 512 512" aria-label="Ubuntu" xmlns="http://www.w3.org/2000/svg" data-type="ugc">
    <g>
        <path fill="#e65e17" d="M512 76.8v358.4c0 42.415-34.385 76.8-76.8 76.8H76.8C34.385 512 0 477.615 0 435.2V76.8C0 34.385 34.385 0 76.8 0h358.4C477.615 0 512 34.385 512 76.8"/>
        <path stroke-width="51" stroke="#ffffff" fill="none" d="M389 256c0 68.483-55.517 124-124 124s-124-55.517-124-124 55.517-124 124-124 124 55.517 124 124z"/>
        <g stroke-width="10" stroke="#e65e17">
            <path d="M131 257c0 22.644-18.356 41-41 41s-41-18.356-41-41 18.356-41 41-41 41 18.356 41 41z" fill="#ffffff"/>
            <path d="M394 409c0 22.644-18.356 41-41 41s-41-18.356-41-41 18.356-41 41-41 41 18.356 41 41z" fill="#ffffff"/>
            <path d="M394 104c0 22.644-18.356 41-41 41s-41-18.356-41-41 18.356-41 41-41 41 18.356 41 41z" fill="#ffffff"/>
            <path d="m185 118 82 138m0 0h155-155l-84 140" stroke-width="19" fill="#ffffff"/>
        </g>
    </g>
</svg>
